<?xml version="1.0" encoding="UTF-8"?>
<!DOCTYPE svg PUBLIC "-//W3C//DTD SVG 1.1//EN" "http://www.w3.org/Graphics/SVG/1.1/DTD/svg11.dtd">
<svg xmlns="http://www.w3.org/2000/svg" version="1.1" width="417px" height="335px" style="shape-rendering:geometricPrecision; text-rendering:geometricPrecision; image-rendering:optimizeQuality; fill-rule:evenodd; clip-rule:evenodd" xmlns:xlink="http://www.w3.org/1999/xlink">
<g><path style="opacity:0.146" fill="#ffcb67" d="M 67.5,-0.5 C 161.167,-0.5 254.833,-0.5 348.5,-0.5C 387.307,8.30536 409.973,32.3054 416.5,71.5C 416.5,134.833 416.5,198.167 416.5,261.5C 414.387,278.318 407.887,293.318 397,306.5C 396.617,305.944 396.117,305.611 395.5,305.5C 395.5,305.167 395.5,304.833 395.5,304.5C 397.833,300.5 400.167,296.5 402.5,292.5C 408.032,284.423 411.532,275.423 413,265.5C 413.667,199.5 413.667,133.5 413,67.5C 407.402,41.4128 392.902,22.0795 369.5,9.5C 362.149,6.16112 354.483,3.82779 346.5,2.5C 339.588,1.53785 332.588,1.20452 325.5,1.5C 315.833,1.5 306.167,1.5 296.5,1.5C 288.5,1.5 280.5,1.5 272.5,1.5C 264.833,1.5 257.167,1.5 249.5,1.5C 241.833,1.5 234.167,1.5 226.5,1.5C 217.5,1.5 208.5,1.5 199.5,1.5C 191.5,1.5 183.5,1.5 175.5,1.5C 166.833,1.5 158.167,1.5 149.5,1.5C 140.5,1.5 131.5,1.5 122.5,1.5C 104.992,1.17001 87.6586,1.50335 70.5,2.5C 68.2646,2.20528 66.2646,2.53862 64.5,3.5C 62.139,3.67412 59.8056,4.00745 57.5,4.5C 57.5,3.83333 57.1667,3.5 56.5,3.5C 56.1667,3.5 55.8333,3.5 55.5,3.5C 59.4086,1.85706 63.4086,0.523724 67.5,-0.5 Z"/></g>
<g><path style="opacity:1" fill="#fe7398" d="M 64.5,3.5 C 66.2646,2.53862 68.2646,2.20528 70.5,2.5C 77.7967,3.4897 85.13,4.15637 92.5,4.5C 99.4066,5.63577 106.407,6.9691 113.5,8.5C 106.284,48.4602 99.2844,88.4602 92.5,128.5C 77.1321,171.577 61.4655,214.577 45.5,257.5C 46.2343,259.815 47.5676,261.648 49.5,263C 55.8246,263.5 62.1579,263.666 68.5,263.5C 64.7395,282.729 61.4061,302.062 58.5,321.5C 65.5081,324.252 72.8414,326.085 80.5,327C 79.2068,327.49 77.8734,327.657 76.5,327.5C 60.1673,325.749 46.3339,319.082 35,307.5C 34.8333,306.5 34.6667,305.5 34.5,304.5C 52.223,205.887 69.5563,107.22 86.5,8.5C 78.923,7.58648 71.5896,5.91982 64.5,3.5 Z"/></g>
<g><path style="opacity:0.158" fill="#ff0868" d="M 55.5,3.5 C 55.8333,3.5 56.1667,3.5 56.5,3.5C 56.5,3.83333 56.5,4.16667 56.5,4.5C 56.5,4.83333 56.5,5.16667 56.5,5.5C 51.738,6.71637 47.4047,8.71637 43.5,11.5C 31.0996,17.5387 21.433,26.5387 14.5,38.5C 9.07703,46.6949 5.2437,55.6949 3,65.5C 2.33333,132.167 2.33333,198.833 3,265.5C 7.39446,289.339 19.8945,307.339 40.5,319.5C 47.2603,324.709 54.9269,328.042 63.5,329.5C 65.4144,330.185 67.4144,330.685 69.5,331C 88.8305,331.5 108.164,331.667 127.5,331.5C 136.5,331.5 145.5,331.5 154.5,331.5C 162.167,331.5 169.833,331.5 177.5,331.5C 187.5,331.5 197.5,331.5 207.5,331.5C 223.833,331.5 240.167,331.5 256.5,331.5C 286.502,331.667 316.502,331.5 346.5,331C 348.382,330.802 350.048,330.302 351.5,329.5C 354.152,329.59 356.485,328.924 358.5,327.5C 364.86,326.152 370.527,323.485 375.5,319.5C 379.049,318.277 382.049,316.277 384.5,313.5C 387.432,312.2 389.766,310.2 391.5,307.5C 392.833,306.5 394.167,305.5 395.5,304.5C 395.5,304.833 395.5,305.167 395.5,305.5C 394.221,309.302 391.888,312.469 388.5,315C 373.581,327.133 356.581,333.633 337.5,334.5C 251.167,334.5 164.833,334.5 78.5,334.5C 34.8106,330.144 8.47729,306.477 -0.5,263.5C -0.5,198.833 -0.5,134.167 -0.5,69.5C 5.07543,36.3265 23.7421,14.3265 55.5,3.5 Z"/></g>
<g><path style="opacity:1" fill="#ff6d98" d="M 64.5,3.5 C 71.5896,5.91982 78.923,7.58648 86.5,8.5C 69.5563,107.22 52.223,205.887 34.5,304.5C 34.6667,305.5 34.8333,306.5 35,307.5C 46.3339,319.082 60.1673,325.749 76.5,327.5C 93.5023,328.803 110.502,330.136 127.5,331.5C 108.164,331.667 88.8305,331.5 69.5,331C 67.4144,330.685 65.4144,330.185 63.5,329.5C 63.4226,328.25 62.756,327.417 61.5,327C 56.1568,324.994 50.8234,322.994 45.5,321C 42.2333,317.694 38.5667,314.861 34.5,312.5C 31.1794,306.858 27.1794,301.858 22.5,297.5C 17.3193,288.794 13.486,279.461 11,269.5C 10.3333,266.167 10.3333,262.833 11,259.5C 25.9787,174.775 41.1454,90.1087 56.5,5.5C 56.5,5.16667 56.5,4.83333 56.5,4.5C 56.8333,4.5 57.1667,4.5 57.5,4.5C 59.8056,4.00745 62.139,3.67412 64.5,3.5 Z"/></g>
<g><path style="opacity:1" fill="#fe7998" d="M 92.5,4.5 C 107.732,3.66084 122.732,4.99418 137.5,8.5C 133.842,28.1125 130.509,47.7792 127.5,67.5C 124.753,67.1866 122.086,67.52 119.5,68.5C 120.18,69.8599 120.847,71.1932 121.5,72.5C 120.508,72.3284 119.842,72.6618 119.5,73.5C 119.167,73.5 118.833,73.5 118.5,73.5C 118.5,72.5 118.5,71.5 118.5,70.5C 115.52,70.2411 113.687,71.5744 113,74.5C 106.433,92.7159 99.5994,110.716 92.5,128.5C 99.2844,88.4602 106.284,48.4602 113.5,8.5C 106.407,6.9691 99.4066,5.63577 92.5,4.5 Z"/></g>
<g><path style="opacity:1" fill="#ff7f98" d="M 70.5,2.5 C 87.6586,1.50335 104.992,1.17001 122.5,1.5C 131.362,2.56682 140.362,3.73349 149.5,5C 154.406,5.75878 159.072,7.25878 163.5,9.5C 159.829,28.8627 156.162,48.1961 152.5,67.5C 144.167,67.5 135.833,67.5 127.5,67.5C 130.509,47.7792 133.842,28.1125 137.5,8.5C 122.732,4.99418 107.732,3.66084 92.5,4.5C 85.13,4.15637 77.7967,3.4897 70.5,2.5 Z"/></g>
<g><path style="opacity:1" fill="#ff8698" d="M 122.5,1.5 C 131.5,1.5 140.5,1.5 149.5,1.5C 158.689,2.95062 168.022,4.45062 177.5,6C 180.094,6.63012 182.427,7.79679 184.5,9.5C 180.829,28.8627 177.162,48.1961 173.5,67.5C 166.5,67.5 159.5,67.5 152.5,67.5C 156.162,48.1961 159.829,28.8627 163.5,9.5C 159.072,7.25878 154.406,5.75878 149.5,5C 140.362,3.73349 131.362,2.56682 122.5,1.5 Z"/></g>
<g><path style="opacity:1" fill="#ff8c98" d="M 149.5,1.5 C 158.167,1.5 166.833,1.5 175.5,1.5C 185.062,3.45122 194.729,5.45122 204.5,7.5C 201.383,27.5337 198.05,47.5337 194.5,67.5C 187.5,67.5 180.5,67.5 173.5,67.5C 177.162,48.1961 180.829,28.8627 184.5,9.5C 182.427,7.79679 180.094,6.63012 177.5,6C 168.022,4.45062 158.689,2.95062 149.5,1.5 Z"/></g>
<g><path style="opacity:1" fill="#ff9297" d="M 175.5,1.5 C 183.5,1.5 191.5,1.5 199.5,1.5C 208.119,3.33562 216.786,5.50229 225.5,8C 219.737,38.0761 214.237,68.2428 209,98.5C 208.617,99.056 208.117,99.3893 207.5,99.5C 203.909,89.8951 200.409,80.2284 197,70.5C 193.711,67.7586 191.211,68.4253 189.5,72.5C 189.167,72.5 188.833,72.5 188.5,72.5C 166.833,72.5 145.167,72.5 123.5,72.5C 122.833,72.5 122.167,72.5 121.5,72.5C 120.847,71.1932 120.18,69.8599 119.5,68.5C 122.086,67.52 124.753,67.1866 127.5,67.5C 135.833,67.5 144.167,67.5 152.5,67.5C 159.5,67.5 166.5,67.5 173.5,67.5C 180.5,67.5 187.5,67.5 194.5,67.5C 198.05,47.5337 201.383,27.5337 204.5,7.5C 194.729,5.45122 185.062,3.45122 175.5,1.5 Z"/></g>
<g><path style="opacity:1" fill="#ff9998" d="M 199.5,1.5 C 208.5,1.5 217.5,1.5 226.5,1.5C 233.857,3.39502 241.19,5.72835 248.5,8.5C 240.472,53.6828 232.138,98.6828 223.5,143.5C 218.362,128.752 213.029,114.085 207.5,99.5C 208.117,99.3893 208.617,99.056 209,98.5C 214.237,68.2428 219.737,38.0761 225.5,8C 216.786,5.50229 208.119,3.33562 199.5,1.5 Z"/></g>
<g><path style="opacity:1" fill="#ff9f98" d="M 226.5,1.5 C 234.167,1.5 241.833,1.5 249.5,1.5C 255.745,3.50121 262.078,5.50121 268.5,7.5C 258.364,64.9945 248.03,122.328 237.5,179.5C 236.167,176.833 234.833,174.167 233.5,171.5C 230.728,161.958 227.395,152.625 223.5,143.5C 232.138,98.6828 240.472,53.6828 248.5,8.5C 241.19,5.72835 233.857,3.39502 226.5,1.5 Z"/></g>
<g><path style="opacity:1" fill="#fea598" d="M 249.5,1.5 C 257.167,1.5 264.833,1.5 272.5,1.5C 277.856,3.28728 283.189,5.28728 288.5,7.5C 285.588,27.9743 281.921,48.3076 277.5,68.5C 278.18,69.8599 278.847,71.1932 279.5,72.5C 278.833,72.5 278.167,72.5 277.5,72.5C 276.359,71.661 275.026,70.9943 273.5,70.5C 272.5,132.496 272.167,194.496 272.5,256.5C 272.5,257.167 272.5,257.833 272.5,258.5C 271.506,248.013 271.172,237.346 271.5,226.5C 271.667,187.165 271.5,147.832 271,108.5C 264.667,144.167 258.333,179.833 252,215.5C 251.617,216.056 251.117,216.389 250.5,216.5C 245.966,204.23 241.632,191.897 237.5,179.5C 248.03,122.328 258.364,64.9945 268.5,7.5C 262.078,5.50121 255.745,3.50121 249.5,1.5 Z"/></g>
<g><path style="opacity:1" fill="#ffab98" d="M 272.5,1.5 C 280.5,1.5 288.5,1.5 296.5,1.5C 297.609,2.28997 298.942,2.78997 300.5,3C 300.167,3.33333 299.833,3.66667 299.5,4C 303.065,4.68737 306.398,5.85403 309.5,7.5C 306.383,27.5364 303.049,47.5364 299.5,67.5C 293.464,67.3599 287.464,67.6932 281.5,68.5C 281.433,69.9587 281.766,71.2921 282.5,72.5C 282.167,72.5 281.833,72.5 281.5,72.5C 280.833,72.5 280.167,72.5 279.5,72.5C 278.847,71.1932 278.18,69.8599 277.5,68.5C 281.921,48.3076 285.588,27.9743 288.5,7.5C 283.189,5.28728 277.856,3.28728 272.5,1.5 Z"/></g>
<g><path style="opacity:1" fill="#ffb298" d="M 296.5,1.5 C 306.167,1.5 315.833,1.5 325.5,1.5C 327.775,3.72717 331.108,5.39383 335.5,6.5C 332.275,26.8494 328.942,47.1827 325.5,67.5C 316.833,67.5 308.167,67.5 299.5,67.5C 303.049,47.5364 306.383,27.5364 309.5,7.5C 306.398,5.85403 303.065,4.68737 299.5,4C 299.833,3.66667 300.167,3.33333 300.5,3C 298.942,2.78997 297.609,2.28997 296.5,1.5 Z"/></g>
<g><path style="opacity:1" fill="#ffb897" d="M 325.5,1.5 C 332.588,1.20452 339.588,1.53785 346.5,2.5C 349.406,4.99085 352.406,7.32418 355.5,9.5C 357.677,10.3654 358.677,12.0321 358.5,14.5C 351.47,55.0275 344.136,95.3608 336.5,135.5C 336.667,114.497 336.5,93.4974 336,72.5C 335.248,68.5966 333.081,67.5966 329.5,69.5C 328.614,70.325 328.281,71.325 328.5,72.5C 328.167,72.5 327.833,72.5 327.5,72.5C 312.5,72.5 297.5,72.5 282.5,72.5C 281.766,71.2921 281.433,69.9587 281.5,68.5C 287.464,67.6932 293.464,67.3599 299.5,67.5C 308.167,67.5 316.833,67.5 325.5,67.5C 328.942,47.1827 332.275,26.8494 335.5,6.5C 331.108,5.39383 327.775,3.72717 325.5,1.5 Z"/></g>
<g><path style="opacity:1" fill="#ff6898" d="M 56.5,5.5 C 41.1454,90.1087 25.9787,174.775 11,259.5C 10.3333,262.833 10.3333,266.167 11,269.5C 13.486,279.461 17.3193,288.794 22.5,297.5C 13.5596,286.871 8.39289,274.538 7,260.5C 7.09659,198.169 7.42993,135.836 8,73.5C 9.41342,60.9259 13.4134,49.2592 20,38.5C 26.9814,28.6903 34.8147,19.6903 43.5,11.5C 47.4047,8.71637 51.738,6.71637 56.5,5.5 Z"/></g>
<g><path style="opacity:1" fill="#febe98" d="M 355.5,9.5 C 366.513,12.1725 375.847,17.6725 383.5,26C 365.244,125.365 347.578,224.865 330.5,324.5C 339.925,326.036 349.258,325.536 358.5,323C 367.297,320.098 375.963,316.931 384.5,313.5C 382.049,316.277 379.049,318.277 375.5,319.5C 367.374,322.36 359.041,324.527 350.5,326C 334.783,326.787 319.116,326.287 303.5,324.5C 307.039,304.137 310.706,283.803 314.5,263.5C 319.833,263.5 325.167,263.5 330.5,263.5C 330.5,261.833 330.5,260.167 330.5,258.5C 331.167,258.5 331.5,258.167 331.5,257.5C 332.82,258.942 334.486,259.608 336.5,259.5C 336.5,218.167 336.5,176.833 336.5,135.5C 344.136,95.3608 351.47,55.0275 358.5,14.5C 358.677,12.0321 357.677,10.3654 355.5,9.5 Z"/></g>
<g><path style="opacity:1" fill="#ffc498" d="M 346.5,2.5 C 354.483,3.82779 362.149,6.16112 369.5,9.5C 372.974,14.1307 377.307,17.9641 382.5,21C 391.194,29.0205 398.36,38.1872 404,48.5C 404.857,54.9007 406.024,61.234 407.5,67.5C 392.206,151.13 377.373,234.796 363,318.5C 365.088,317.692 367.088,316.692 369,315.5C 371.055,315.848 373.055,315.181 375,313.5C 375.333,313.833 375.667,314.167 376,314.5C 380.403,310.53 385.57,308.197 391.5,307.5C 389.766,310.2 387.432,312.2 384.5,313.5C 375.963,316.931 367.297,320.098 358.5,323C 349.258,325.536 339.925,326.036 330.5,324.5C 347.578,224.865 365.244,125.365 383.5,26C 375.847,17.6725 366.513,12.1725 355.5,9.5C 352.406,7.32418 349.406,4.99085 346.5,2.5 Z"/></g>
<g><path style="opacity:0.996" fill="#ffca90" d="M 369.5,9.5 C 392.902,22.0795 407.402,41.4128 413,67.5C 413.667,133.5 413.667,199.5 413,265.5C 411.532,275.423 408.032,284.423 402.5,292.5C 405.135,282.958 407.302,273.292 409,263.5C 409.667,200.167 409.667,136.833 409,73.5C 408.809,71.2922 408.309,69.2922 407.5,67.5C 406.024,61.234 404.857,54.9007 404,48.5C 398.36,38.1872 391.194,29.0205 382.5,21C 377.307,17.9641 372.974,14.1307 369.5,9.5 Z"/></g>
<g><path style="opacity:1" fill="#ffc998" d="M 407.5,67.5 C 408.309,69.2922 408.809,71.2922 409,73.5C 409.667,136.833 409.667,200.167 409,263.5C 407.302,273.292 405.135,282.958 402.5,292.5C 400.167,296.5 397.833,300.5 395.5,304.5C 394.167,305.5 392.833,306.5 391.5,307.5C 385.57,308.197 380.403,310.53 376,314.5C 375.667,314.167 375.333,313.833 375,313.5C 373.055,315.181 371.055,315.848 369,315.5C 367.088,316.692 365.088,317.692 363,318.5C 377.373,234.796 392.206,151.13 407.5,67.5 Z"/></g>
<g><path style="opacity:0.999" fill="#ff508d" d="M 14.5,38.5 C 10.9789,46.8974 8.14557,55.5641 6,64.5C 5.66667,69.1667 5.33333,73.8333 5,78.5C 4.33333,139.833 4.33333,201.167 5,262.5C 5.24368,267.951 6.07702,273.284 7.5,278.5C 8.5,278.5 9.5,278.5 10.5,278.5C 11.6746,282.86 13.0079,287.194 14.5,291.5C 18.4858,296.327 22.3191,301.327 26,306.5C 30.7042,311.041 35.5375,315.374 40.5,319.5C 19.8945,307.339 7.39446,289.339 3,265.5C 2.33333,198.833 2.33333,132.167 3,65.5C 5.2437,55.6949 9.07703,46.6949 14.5,38.5 Z"/></g>
<g><path style="opacity:1" fill="#ffebcb" d="M 327.5,72.5 C 327.833,72.5 328.167,72.5 328.5,72.5C 329.5,72.5 330.5,72.5 331.5,72.5C 331.5,133.833 331.5,195.167 331.5,256.5C 331.167,256.5 330.833,256.5 330.5,256.5C 329.833,255.5 329.167,254.5 328.5,253.5C 327.839,194.304 327.172,135.137 326.5,76C 327.337,74.9887 327.67,73.8221 327.5,72.5 Z"/></g>
<g><path style="opacity:1" fill="#fefefe" d="M 121.5,72.5 C 122.167,72.5 122.833,72.5 123.5,72.5C 123.978,74.9171 124.978,77.0838 126.5,79C 146.406,79.173 166.24,79.673 186,80.5C 207.06,136.346 227.727,192.346 248,248.5C 249.045,249.373 249.878,250.373 250.5,251.5C 237.211,250.703 223.878,250.203 210.5,250C 209.299,249.097 208.465,247.931 208,246.5C 205.066,236.363 201.732,226.363 198,216.5C 196.773,214.274 194.939,212.774 192.5,212C 168.5,211.333 144.5,211.333 120.5,212C 116.866,214.042 116.532,216.542 119.5,219.5C 119.5,220.167 119.5,220.833 119.5,221.5C 117.234,221.141 115.401,221.808 114,223.5C 111.333,231.5 108.667,239.5 106,247.5C 105.174,250.212 105.674,252.545 107.5,254.5C 107.5,255.167 107.5,255.833 107.5,256.5C 105.596,256.262 104.262,255.262 103.5,253.5C 102.942,252.21 101.942,251.377 100.5,251C 87.6781,250.981 75.0115,250.314 62.5,249C 82.8514,193.794 103.351,138.627 124,83.5C 124.864,79.9661 124.031,76.9661 121.5,74.5C 120.508,74.6716 119.842,74.3382 119.5,73.5C 119.842,72.6618 120.508,72.3284 121.5,72.5 Z"/></g>
<g><path style="opacity:1" fill="#ffaa87" d="M 207.5,99.5 C 213.029,114.085 218.362,128.752 223.5,143.5C 227.395,152.625 230.728,161.958 233.5,171.5C 227.639,159.25 221.973,146.916 216.5,134.5C 216.043,133.702 215.376,133.369 214.5,133.5C 207.538,113.604 200.204,93.9369 192.5,74.5C 192.179,72.9519 191.179,72.2852 189.5,72.5C 191.211,68.4253 193.711,67.7586 197,70.5C 200.409,80.2284 203.909,89.8951 207.5,99.5 Z"/></g>
<g><path style="opacity:1" fill="#fefefd" d="M 279.5,72.5 C 280.167,72.5 280.833,72.5 281.5,72.5C 282.987,73.8036 284.654,74.9702 286.5,76C 298.5,76.3333 310.5,76.6667 322.5,77C 323.893,78.1711 324.727,79.6711 325,81.5C 325.5,138.499 325.667,195.499 325.5,252.5C 324.244,252.539 323.244,252.039 322.5,251C 310.258,250.823 298.091,250.323 286,249.5C 285.667,192.833 285.333,136.167 285,79.5C 283.158,77.1364 281.325,74.8031 279.5,72.5 Z"/></g>
<g><path style="opacity:1" fill="#fff6e5" d="M 281.5,72.5 C 281.833,72.5 282.167,72.5 282.5,72.5C 297.5,72.5 312.5,72.5 327.5,72.5C 327.67,73.8221 327.337,74.9887 326.5,76C 327.172,135.137 327.839,194.304 328.5,253.5C 327.391,253.443 326.391,253.11 325.5,252.5C 325.667,195.499 325.5,138.499 325,81.5C 324.727,79.6711 323.893,78.1711 322.5,77C 310.5,76.6667 298.5,76.3333 286.5,76C 284.654,74.9702 282.987,73.8036 281.5,72.5 Z"/></g>
<g><path style="opacity:1" fill="#e37e7f" d="M 277.5,72.5 C 277.5,73.5 277.5,74.5 277.5,75.5C 277.5,76.1667 277.5,76.8333 277.5,77.5C 276.837,138.176 277.504,198.509 279.5,258.5C 277.735,259.461 275.735,259.795 273.5,259.5C 273.737,258.209 273.404,257.209 272.5,256.5C 272.167,194.496 272.5,132.496 273.5,70.5C 275.026,70.9943 276.359,71.661 277.5,72.5 Z"/></g>
<g><path style="opacity:1" fill="#e9c8d3" d="M 277.5,75.5 C 279.587,76.5846 280.92,78.2512 281.5,80.5C 281.333,137.501 281.5,194.501 282,251.5C 282.309,252.766 282.809,253.933 283.5,255C 297.179,255.167 310.846,255.667 324.5,256.5C 324.863,257.183 325.196,257.85 325.5,258.5C 310.5,258.5 295.5,258.5 280.5,258.5C 279.678,198.528 279.178,138.528 279,78.5C 278.617,77.944 278.117,77.6107 277.5,77.5C 277.5,76.8333 277.5,76.1667 277.5,75.5 Z"/></g>
<g><path style="opacity:1" fill="#f9f1f3" d="M 277.5,72.5 C 278.167,72.5 278.833,72.5 279.5,72.5C 281.325,74.8031 283.158,77.1364 285,79.5C 285.333,136.167 285.667,192.833 286,249.5C 298.091,250.323 310.258,250.823 322.5,251C 323.244,252.039 324.244,252.539 325.5,252.5C 326.391,253.11 327.391,253.443 328.5,253.5C 329.167,254.5 329.833,255.5 330.5,256.5C 330.565,256.938 330.399,257.272 330,257.5C 328.681,255.513 326.848,254.346 324.5,254C 311.167,253.667 297.833,253.333 284.5,253C 283.874,252.25 283.374,251.416 283,250.5C 282.833,193.665 282.333,136.999 281.5,80.5C 280.92,78.2512 279.587,76.5846 277.5,75.5C 277.5,74.5 277.5,73.5 277.5,72.5 Z"/></g>
<g><path style="opacity:1" fill="#e2b7c5" d="M 277.5,77.5 C 278.117,77.6107 278.617,77.944 279,78.5C 279.178,138.528 279.678,198.528 280.5,258.5C 280.167,258.5 279.833,258.5 279.5,258.5C 277.504,198.509 276.837,138.176 277.5,77.5 Z"/></g>
<g><path style="opacity:1" fill="#efd8e0" d="M 281.5,80.5 C 282.333,136.999 282.833,193.665 283,250.5C 283.374,251.416 283.874,252.25 284.5,253C 297.833,253.333 311.167,253.667 324.5,254C 326.848,254.346 328.681,255.513 330,257.5C 330.399,257.272 330.565,256.938 330.5,256.5C 330.833,256.5 331.167,256.5 331.5,256.5C 331.5,256.833 331.5,257.167 331.5,257.5C 331.5,258.167 331.167,258.5 330.5,258.5C 328.833,258.5 327.167,258.5 325.5,258.5C 325.196,257.85 324.863,257.183 324.5,256.5C 310.846,255.667 297.179,255.167 283.5,255C 282.809,253.933 282.309,252.766 282,251.5C 281.5,194.501 281.333,137.501 281.5,80.5 Z"/></g>
<g><path style="opacity:1" fill="#ffefd0" d="M 188.5,72.5 C 188.833,72.5 189.167,72.5 189.5,72.5C 191.179,72.2852 192.179,72.9519 192.5,74.5C 192.337,76.8568 192.503,79.1902 193,81.5C 214.599,137.799 235.099,194.466 254.5,251.5C 252.526,249.572 251.026,247.239 250,244.5C 238.445,209.165 226.112,174.165 213,139.5C 210.998,135.451 208.998,131.451 207,127.5C 201.29,108.983 195.123,90.6499 188.5,72.5 Z"/></g>
<g><path style="opacity:1" fill="#f9f0f3" d="M 121.5,74.5 C 124.031,76.9661 124.864,79.9661 124,83.5C 103.351,138.627 82.8514,193.794 62.5,249C 75.0115,250.314 87.6781,250.981 100.5,251C 101.942,251.377 102.942,252.21 103.5,253.5C 89.1628,253.667 74.8295,253.5 60.5,253C 59.9032,251.938 59.5698,250.772 59.5,249.5C 67.4593,227.982 74.9593,206.315 82,184.5C 85.4272,176.606 88.9272,168.773 92.5,161C 97.4646,145.773 102.631,130.606 108,115.5C 112.249,107.086 115.916,98.4197 119,89.5C 121.033,84.7046 121.866,79.7046 121.5,74.5 Z"/></g>
<g><path style="opacity:1" fill="#ffab98" d="M 271.5,226.5 C 269.604,234.985 267.937,243.651 266.5,252.5C 266.36,254.03 265.693,255.03 264.5,255.5C 260.109,242.388 255.442,229.388 250.5,216.5C 251.117,216.389 251.617,216.056 252,215.5C 258.333,179.833 264.667,144.167 271,108.5C 271.5,147.832 271.667,187.165 271.5,226.5 Z"/></g>
<g><path style="opacity:1" fill="#fff5e4" d="M 152.5,122.5 C 152.5,122.833 152.5,123.167 152.5,123.5C 146.334,140.661 140.334,157.994 134.5,175.5C 146.815,176.499 159.149,176.832 171.5,176.5C 172.028,177.721 172.695,178.887 173.5,180C 173.167,180.333 172.833,180.667 172.5,181C 165.5,181.167 158.5,181.333 151.5,181.5C 144.096,181.481 136.93,180.814 130,179.5C 135.134,160.087 141.134,140.753 148,121.5C 149.816,120.257 151.316,120.59 152.5,122.5 Z"/></g>
<g><path style="opacity:1" fill="#eacad4" d="M 175.5,176.5 C 175.5,175.167 175.5,173.833 175.5,172.5C 176.629,170.372 176.796,168.039 176,165.5C 171.303,152.408 166.803,139.241 162.5,126C 161.59,124.251 160.257,123.084 158.5,122.5C 158.446,120.368 157.446,119.035 155.5,118.5C 154.833,118.5 154.167,118.5 153.5,118.5C 153.533,113.593 155.866,112.26 160.5,114.5C 161.667,116.167 162.833,117.833 164,119.5C 168.261,134.285 172.928,148.952 178,163.5C 179.156,167.418 179.656,171.418 179.5,175.5C 178.041,175.433 176.708,175.766 175.5,176.5 Z"/></g>
<g><path style="opacity:1" fill="#fe8898" d="M 153.5,118.5 C 154.167,118.5 154.833,118.5 155.5,118.5C 155.334,122.846 155.501,127.179 156,131.5C 160.267,144.135 164.434,156.802 168.5,169.5C 169.545,171.205 170.878,172.705 172.5,174C 173.816,174.528 174.483,174.028 174.5,172.5C 174.833,172.5 175.167,172.5 175.5,172.5C 175.5,173.833 175.5,175.167 175.5,176.5C 174.833,176.5 174.167,176.5 173.5,176.5C 172.833,176.5 172.167,176.5 171.5,176.5C 169.684,174.863 167.684,173.363 165.5,172C 157.5,171.667 149.5,171.333 141.5,171C 145.192,160.925 148.692,150.758 152,140.5C 152.499,134.843 152.666,129.176 152.5,123.5C 152.5,123.167 152.5,122.833 152.5,122.5C 152.5,121.833 152.5,121.167 152.5,120.5C 153.338,120.158 153.672,119.492 153.5,118.5 Z"/></g>
<g><path style="opacity:1" fill="#dfaebe" d="M 158.5,122.5 C 160.257,123.084 161.59,124.251 162.5,126C 166.803,139.241 171.303,152.408 176,165.5C 176.796,168.039 176.629,170.372 175.5,172.5C 175.167,172.5 174.833,172.5 174.5,172.5C 169.363,155.757 164.03,139.09 158.5,122.5 Z"/></g>
<g><path style="opacity:1" fill="#ff9692" d="M 152.5,123.5 C 152.666,129.176 152.499,134.843 152,140.5C 148.692,150.758 145.192,160.925 141.5,171C 149.5,171.333 157.5,171.667 165.5,172C 167.684,173.363 169.684,174.863 171.5,176.5C 159.149,176.832 146.815,176.499 134.5,175.5C 140.334,157.994 146.334,140.661 152.5,123.5 Z"/></g>
<g><path style="opacity:1" fill="#f8eff2" d="M 173.5,176.5 C 174.167,176.5 174.833,176.5 175.5,176.5C 176.708,175.766 178.041,175.433 179.5,175.5C 179.656,171.418 179.156,167.418 178,163.5C 172.928,148.952 168.261,134.285 164,119.5C 162.833,117.833 161.667,116.167 160.5,114.5C 155.866,112.26 153.533,113.593 153.5,118.5C 153.672,119.492 153.338,120.158 152.5,120.5C 149.882,111.617 152.882,108.784 161.5,112C 163.617,113.731 165.117,115.898 166,118.5C 171.868,135.771 177.535,153.104 183,170.5C 184.004,173.993 183.504,177.159 181.5,180C 177.984,180.741 175.317,179.575 173.5,176.5 Z"/></g>
<g><path style="opacity:1" fill="#eccdd7" d="M 118.5,73.5 C 118.833,73.5 119.167,73.5 119.5,73.5C 119.842,74.3382 120.508,74.6716 121.5,74.5C 121.866,79.7046 121.033,84.7046 119,89.5C 115.916,98.4197 112.249,107.086 108,115.5C 102.631,130.606 97.4646,145.773 92.5,161C 88.9272,168.773 85.4272,176.606 82,184.5C 74.9593,206.315 67.4593,227.982 59.5,249.5C 59.5698,250.772 59.9032,251.938 60.5,253C 74.8295,253.5 89.1628,253.667 103.5,253.5C 104.262,255.262 105.596,256.262 107.5,256.5C 107.5,257.167 107.5,257.833 107.5,258.5C 88.8333,258.5 70.1667,258.5 51.5,258.5C 73.6312,196.774 95.9645,135.108 118.5,73.5 Z"/></g>
<g><path style="opacity:1" fill="#ffb387" d="M 214.5,133.5 C 215.376,133.369 216.043,133.702 216.5,134.5C 221.973,146.916 227.639,159.25 233.5,171.5C 234.833,174.167 236.167,176.833 237.5,179.5C 241.632,191.897 245.966,204.23 250.5,216.5C 255.442,229.388 260.109,242.388 264.5,255.5C 263.789,257.842 262.456,258.175 260.5,256.5C 259.599,255.71 258.932,254.71 258.5,253.5C 244.029,213.418 229.362,173.418 214.5,133.5 Z"/></g>
<g><path style="opacity:1" fill="#fff8ec" d="M 123.5,72.5 C 145.167,72.5 166.833,72.5 188.5,72.5C 195.123,90.6499 201.29,108.983 207,127.5C 208.998,131.451 210.998,135.451 213,139.5C 226.112,174.165 238.445,209.165 250,244.5C 251.026,247.239 252.526,249.572 254.5,251.5C 256.062,251.733 257.395,252.4 258.5,253.5C 258.932,254.71 259.599,255.71 260.5,256.5C 260.5,257.167 260.5,257.833 260.5,258.5C 260.167,258.5 259.833,258.5 259.5,258.5C 258.5,258.5 257.5,258.5 256.5,258.5C 255.833,257.5 255.167,256.5 254.5,255.5C 253.167,254.167 251.833,252.833 250.5,251.5C 249.878,250.373 249.045,249.373 248,248.5C 227.727,192.346 207.06,136.346 186,80.5C 166.24,79.673 146.406,79.173 126.5,79C 124.978,77.0838 123.978,74.9171 123.5,72.5 Z"/></g>
<g><path style="opacity:1" fill="#e0637c" d="M 155.5,118.5 C 157.446,119.035 158.446,120.368 158.5,122.5C 164.03,139.09 169.363,155.757 174.5,172.5C 174.483,174.028 173.816,174.528 172.5,174C 170.878,172.705 169.545,171.205 168.5,169.5C 164.434,156.802 160.267,144.135 156,131.5C 155.501,127.179 155.334,122.846 155.5,118.5 Z"/></g>
<g><path style="opacity:1" fill="#ff5d92" d="M 43.5,11.5 C 34.8147,19.6903 26.9814,28.6903 20,38.5C 13.4134,49.2592 9.41342,60.9259 8,73.5C 7.42993,135.836 7.09659,198.169 7,260.5C 8.39289,274.538 13.5596,286.871 22.5,297.5C 27.1794,301.858 31.1794,306.858 34.5,312.5C 38.5667,314.861 42.2333,317.694 45.5,321C 50.8234,322.994 56.1568,324.994 61.5,327C 62.756,327.417 63.4226,328.25 63.5,329.5C 54.9269,328.042 47.2603,324.709 40.5,319.5C 35.5375,315.374 30.7042,311.041 26,306.5C 22.3191,301.327 18.4858,296.327 14.5,291.5C 13.0079,287.194 11.6746,282.86 10.5,278.5C 9.5,278.5 8.5,278.5 7.5,278.5C 6.07702,273.284 5.24368,267.951 5,262.5C 4.33333,201.167 4.33333,139.833 5,78.5C 5.33333,73.8333 5.66667,69.1667 6,64.5C 8.14557,55.5641 10.9789,46.8974 14.5,38.5C 21.433,26.5387 31.0996,17.5387 43.5,11.5 Z"/></g>
<g><path style="opacity:1" fill="#ffc18a" d="M 336.5,135.5 C 336.5,176.833 336.5,218.167 336.5,259.5C 334.486,259.608 332.82,258.942 331.5,257.5C 331.5,257.167 331.5,256.833 331.5,256.5C 331.5,195.167 331.5,133.833 331.5,72.5C 330.5,72.5 329.5,72.5 328.5,72.5C 328.281,71.325 328.614,70.325 329.5,69.5C 333.081,67.5966 335.248,68.5966 336,72.5C 336.5,93.4974 336.667,114.497 336.5,135.5 Z"/></g>
<g><path style="opacity:1" fill="#ffe7bf" d="M 192.5,74.5 C 200.204,93.9369 207.538,113.604 214.5,133.5C 229.362,173.418 244.029,213.418 258.5,253.5C 257.395,252.4 256.062,251.733 254.5,251.5C 235.099,194.466 214.599,137.799 193,81.5C 192.503,79.1902 192.337,76.8568 192.5,74.5 Z"/></g>
<g><path style="opacity:1" fill="#ea5f85" d="M 118.5,73.5 C 95.9645,135.108 73.6312,196.774 51.5,258.5C 70.1667,258.5 88.8333,258.5 107.5,258.5C 107.5,260.167 107.5,261.833 107.5,263.5C 102.5,263.5 97.5,263.5 92.5,263.5C 84.5,263.5 76.5,263.5 68.5,263.5C 62.1579,263.666 55.8246,263.5 49.5,263C 47.5676,261.648 46.2343,259.815 45.5,257.5C 61.4655,214.577 77.1321,171.577 92.5,128.5C 99.5994,110.716 106.433,92.7159 113,74.5C 113.687,71.5744 115.52,70.2411 118.5,70.5C 118.5,71.5 118.5,72.5 118.5,73.5 Z"/></g>
<g><path style="opacity:1" fill="#e76e81" d="M 120.5,219.5 C 144.006,219.169 167.339,219.502 190.5,220.5C 194.69,232.404 198.69,244.404 202.5,256.5C 202.747,257.713 203.414,258.38 204.5,258.5C 202.511,259.887 200.678,259.553 199,257.5C 195.766,247.952 192.266,238.618 188.5,229.5C 187.596,228.791 187.263,227.791 187.5,226.5C 187.389,225.883 187.056,225.383 186.5,225C 179.842,224.5 173.175,224.334 166.5,224.5C 159.5,224.5 152.5,224.5 145.5,224.5C 138.5,224.5 131.5,224.5 124.5,224.5C 122.413,223.415 121.08,221.749 120.5,219.5 Z"/></g>
<g><path style="opacity:1" fill="#fff4e3" d="M 119.5,221.5 C 119.5,221.833 119.5,222.167 119.5,222.5C 115.5,233.167 111.5,243.833 107.5,254.5C 105.674,252.545 105.174,250.212 106,247.5C 108.667,239.5 111.333,231.5 114,223.5C 115.401,221.808 117.234,221.141 119.5,221.5 Z"/></g>
<g><path style="opacity:1" fill="#f8eff2" d="M 250.5,251.5 C 251.833,252.833 253.167,254.167 254.5,255.5C 253.078,255.291 251.745,254.791 250.5,254C 236.634,253.808 222.801,253.308 209,252.5C 204.062,242.713 200.062,232.379 197,221.5C 195.513,219.015 193.679,216.848 191.5,215C 167.836,214.5 144.169,214.333 120.5,214.5C 120.5,216.167 120.5,217.833 120.5,219.5C 120.167,219.5 119.833,219.5 119.5,219.5C 116.532,216.542 116.866,214.042 120.5,212C 144.5,211.333 168.5,211.333 192.5,212C 194.939,212.774 196.773,214.274 198,216.5C 201.732,226.363 205.066,236.363 208,246.5C 208.465,247.931 209.299,249.097 210.5,250C 223.878,250.203 237.211,250.703 250.5,251.5 Z"/></g>
<g><path style="opacity:1" fill="#fe7f98" d="M 119.5,219.5 C 119.833,219.5 120.167,219.5 120.5,219.5C 121.08,221.749 122.413,223.415 124.5,224.5C 119.049,257.87 113.383,291.203 107.5,324.5C 114.112,325.659 120.779,326.492 127.5,327C 125.167,327.333 122.833,327.667 120.5,328C 139.686,328.674 158.686,329.841 177.5,331.5C 169.833,331.5 162.167,331.5 154.5,331.5C 135.019,329.841 115.352,328.674 95.5,328C 98.1667,327.667 100.833,327.333 103.5,327C 96.0583,326.85 88.725,326.016 81.5,324.5C 84.848,304.076 88.5147,283.743 92.5,263.5C 97.5,263.5 102.5,263.5 107.5,263.5C 107.5,261.833 107.5,260.167 107.5,258.5C 107.5,257.833 107.5,257.167 107.5,256.5C 109.17,256.751 110.67,257.418 112,258.5C 115.995,248.683 119.495,238.683 122.5,228.5C 121.511,226.506 120.511,224.506 119.5,222.5C 119.5,222.167 119.5,221.833 119.5,221.5C 119.5,220.833 119.5,220.167 119.5,219.5 Z"/></g>
<g><path style="opacity:1" fill="#ff8698" d="M 124.5,224.5 C 131.5,224.5 138.5,224.5 145.5,224.5C 140.05,257.867 134.383,291.201 128.5,324.5C 141.721,326.822 155.054,327.822 168.5,327.5C 181.494,328.899 194.494,330.233 207.5,331.5C 197.5,331.5 187.5,331.5 177.5,331.5C 158.686,329.841 139.686,328.674 120.5,328C 122.833,327.667 125.167,327.333 127.5,327C 120.779,326.492 114.112,325.659 107.5,324.5C 113.383,291.203 119.049,257.87 124.5,224.5 Z"/></g>
<g><path style="opacity:1" fill="#ff8c98" d="M 145.5,224.5 C 152.5,224.5 159.5,224.5 166.5,224.5C 160.757,257.548 154.757,290.548 148.5,323.5C 155.16,325.487 161.827,326.821 168.5,327.5C 155.054,327.822 141.721,326.822 128.5,324.5C 134.383,291.201 140.05,257.867 145.5,224.5 Z"/></g>
<g><path style="opacity:1" fill="#ff9298" d="M 166.5,224.5 C 173.175,224.334 179.842,224.5 186.5,225C 187.056,225.383 187.389,225.883 187.5,226.5C 186.883,226.611 186.383,226.944 186,227.5C 180.43,259.757 174.597,291.924 168.5,324C 176.055,325.812 183.722,326.812 191.5,327C 206.153,327.944 220.82,328.444 235.5,328.5C 236.263,329.268 237.263,329.768 238.5,330C 244.681,330.172 250.681,330.672 256.5,331.5C 240.167,331.5 223.833,331.5 207.5,331.5C 194.494,330.233 181.494,328.899 168.5,327.5C 161.827,326.821 155.16,325.487 148.5,323.5C 154.757,290.548 160.757,257.548 166.5,224.5 Z"/></g>
<g><path style="opacity:1" fill="#ff9393" d="M 119.5,222.5 C 120.511,224.506 121.511,226.506 122.5,228.5C 119.495,238.683 115.995,248.683 112,258.5C 110.67,257.418 109.17,256.751 107.5,256.5C 107.5,255.833 107.5,255.167 107.5,254.5C 111.5,243.833 115.5,233.167 119.5,222.5 Z"/></g>
<g><path style="opacity:1" fill="#ff9898" d="M 187.5,226.5 C 187.263,227.791 187.596,228.791 188.5,229.5C 191.357,239.573 194.524,249.573 198,259.5C 198.792,261.644 200.292,262.977 202.5,263.5C 199.167,283.833 195.833,304.167 192.5,324.5C 206.732,326.683 221.066,327.683 235.5,327.5C 235.5,327.833 235.5,328.167 235.5,328.5C 220.82,328.444 206.153,327.944 191.5,327C 183.722,326.812 176.055,325.812 168.5,324C 174.597,291.924 180.43,259.757 186,227.5C 186.383,226.944 186.883,226.611 187.5,226.5 Z"/></g>
<g><path style="opacity:1" fill="#ffb198" d="M 271.5,226.5 C 271.172,237.346 271.506,248.013 272.5,258.5C 272.624,260.582 273.624,262.082 275.5,263C 280.489,263.499 285.489,263.666 290.5,263.5C 286.727,283.807 283.06,304.14 279.5,324.5C 305.744,327.983 332.077,328.983 358.5,327.5C 356.485,328.924 354.152,329.59 351.5,329.5C 331.164,329.667 310.831,329.5 290.5,329C 287.635,328.817 284.969,328.317 282.5,327.5C 272.821,327.083 263.154,325.749 253.5,323.5C 257.763,302.922 261.263,282.255 264,261.5C 262.961,260.29 261.794,259.29 260.5,258.5C 260.5,257.833 260.5,257.167 260.5,256.5C 262.456,258.175 263.789,257.842 264.5,255.5C 265.693,255.03 266.36,254.03 266.5,252.5C 267.937,243.651 269.604,234.985 271.5,226.5 Z"/></g>
<g><path style="opacity:1" fill="#e0b2c1" d="M 190.5,220.5 C 191.822,220.33 192.989,220.663 194,221.5C 198.481,233.777 202.648,246.11 206.5,258.5C 205.833,258.5 205.167,258.5 204.5,258.5C 203.414,258.38 202.747,257.713 202.5,256.5C 198.69,244.404 194.69,232.404 190.5,220.5 Z"/></g>
<g><path style="opacity:1" fill="#eccfd8" d="M 254.5,255.5 C 255.167,256.5 255.833,257.5 256.5,258.5C 239.833,258.5 223.167,258.5 206.5,258.5C 202.648,246.11 198.481,233.777 194,221.5C 192.989,220.663 191.822,220.33 190.5,220.5C 167.339,219.502 144.006,219.169 120.5,219.5C 120.5,217.833 120.5,216.167 120.5,214.5C 144.169,214.333 167.836,214.5 191.5,215C 193.679,216.848 195.513,219.015 197,221.5C 200.062,232.379 204.062,242.713 209,252.5C 222.801,253.308 236.634,253.808 250.5,254C 251.745,254.791 253.078,255.291 254.5,255.5 Z"/></g>
<g><path style="opacity:1" fill="#ea8284" d="M 188.5,229.5 C 192.266,238.618 195.766,247.952 199,257.5C 200.678,259.553 202.511,259.887 204.5,258.5C 205.167,258.5 205.833,258.5 206.5,258.5C 223.167,258.5 239.833,258.5 256.5,258.5C 257.5,258.5 258.5,258.5 259.5,258.5C 260.942,259.82 261.608,261.486 261.5,263.5C 255.5,263.5 249.5,263.5 243.5,263.5C 236.5,263.5 229.5,263.5 222.5,263.5C 215.833,263.5 209.167,263.5 202.5,263.5C 200.292,262.977 198.792,261.644 198,259.5C 194.524,249.573 191.357,239.573 188.5,229.5 Z"/></g>
<g><path style="opacity:1" fill="#feab98" d="M 259.5,258.5 C 259.833,258.5 260.167,258.5 260.5,258.5C 261.794,259.29 262.961,260.29 264,261.5C 261.263,282.255 257.763,302.922 253.5,323.5C 263.154,325.749 272.821,327.083 282.5,327.5C 269.151,327.454 255.818,326.954 242.5,326C 238.963,325.855 235.629,325.022 232.5,323.5C 236.382,303.541 240.049,283.541 243.5,263.5C 249.5,263.5 255.5,263.5 261.5,263.5C 261.608,261.486 260.942,259.82 259.5,258.5 Z"/></g>
<g><path style="opacity:1" fill="#e99183" d="M 272.5,256.5 C 273.404,257.209 273.737,258.209 273.5,259.5C 275.735,259.795 277.735,259.461 279.5,258.5C 279.833,258.5 280.167,258.5 280.5,258.5C 295.5,258.5 310.5,258.5 325.5,258.5C 327.167,258.5 328.833,258.5 330.5,258.5C 330.5,260.167 330.5,261.833 330.5,263.5C 325.167,263.5 319.833,263.5 314.5,263.5C 306.5,263.5 298.5,263.5 290.5,263.5C 285.489,263.666 280.489,263.499 275.5,263C 273.624,262.082 272.624,260.582 272.5,258.5C 272.5,257.833 272.5,257.167 272.5,256.5 Z"/></g>
<g><path style="opacity:1" fill="#ff7998" d="M 68.5,263.5 C 76.5,263.5 84.5,263.5 92.5,263.5C 88.5147,283.743 84.848,304.076 81.5,324.5C 88.725,326.016 96.0583,326.85 103.5,327C 100.833,327.333 98.1667,327.667 95.5,328C 115.352,328.674 135.019,329.841 154.5,331.5C 145.5,331.5 136.5,331.5 127.5,331.5C 110.502,330.136 93.5023,328.803 76.5,327.5C 77.8734,327.657 79.2068,327.49 80.5,327C 72.8414,326.085 65.5081,324.252 58.5,321.5C 61.4061,302.062 64.7395,282.729 68.5,263.5 Z"/></g>
<g><path style="opacity:1" fill="#ff9f98" d="M 202.5,263.5 C 209.167,263.5 215.833,263.5 222.5,263.5C 219.275,283.849 215.942,304.183 212.5,324.5C 220.283,325.656 227.95,326.656 235.5,327.5C 221.066,327.683 206.732,326.683 192.5,324.5C 195.833,304.167 199.167,283.833 202.5,263.5 Z"/></g>
<g><path style="opacity:1" fill="#ffa397" d="M 222.5,263.5 C 229.5,263.5 236.5,263.5 243.5,263.5C 240.049,283.541 236.382,303.541 232.5,323.5C 235.629,325.022 238.963,325.855 242.5,326C 255.818,326.954 269.151,327.454 282.5,327.5C 284.969,328.317 287.635,328.817 290.5,329C 310.831,329.5 331.164,329.667 351.5,329.5C 350.048,330.302 348.382,330.802 346.5,331C 316.502,331.5 286.502,331.667 256.5,331.5C 250.681,330.672 244.681,330.172 238.5,330C 237.263,329.768 236.263,329.268 235.5,328.5C 235.5,328.167 235.5,327.833 235.5,327.5C 227.95,326.656 220.283,325.656 212.5,324.5C 215.942,304.183 219.275,283.849 222.5,263.5 Z"/></g>
<g><path style="opacity:1" fill="#ffb898" d="M 290.5,263.5 C 298.5,263.5 306.5,263.5 314.5,263.5C 310.706,283.803 307.039,304.137 303.5,324.5C 319.116,326.287 334.783,326.787 350.5,326C 359.041,324.527 367.374,322.36 375.5,319.5C 370.527,323.485 364.86,326.152 358.5,327.5C 332.077,328.983 305.744,327.983 279.5,324.5C 283.06,304.14 286.727,283.807 290.5,263.5 Z"/></g>
</svg>
