<svg t="1700622856909" class="icon" viewBox="0 0 1412 1024" version="1.1" xmlns="http://www.w3.org/2000/svg" p-id="5389" width="32" height="32"><path d="M687.104 1010.546759a11.175724 11.175724 0 0 0 14.336-6.355862l5.632-14.830345 14.953931 5.579034a11.140414 11.140414 0 0 0 13.947586-6.567724 10.999172 10.999172 0 0 0-6.108689-14.053517l-14.953931-5.579035 5.632-14.830344a10.999172 10.999172 0 0 0-6.62069-13.824 11.158069 11.158069 0 0 0-14.177104 6.038068l-5.632 14.830345-14.936275-5.579034a11.140414 11.140414 0 0 0-13.947587 6.567724 10.999172 10.999172 0 0 0 6.10869 14.053517l14.953931 5.579035-5.632 14.830345a10.946207 10.946207 0 0 0 6.444138 14.141793zM1283.742897 684.084966l15.324689-4.519725 4.555035 15.183449c2.030345 5.473103 7.997793 8.421517 13.612138 6.744276a11.016828 11.016828 0 0 0 7.662344-13.029518l-4.555034-15.183448 15.307034-4.537379a10.981517 10.981517 0 0 0 7.026759-13.559173 11.122759 11.122759 0 0 0-13.364965-7.521103l-15.32469 4.519724-4.555035-15.183448a11.122759 11.122759 0 0 0-13.665103-6.973793 10.999172 10.999172 0 0 0-7.591724 13.241379l4.555034 15.218759-15.307034 4.502068a10.981517 10.981517 0 0 0-7.062069 13.559173 11.122759 11.122759 0 0 0 13.382621 7.538759zM1294.424276 65.641931l15.642483-3.248552 3.283862 15.501242a11.122759 11.122759 0 0 0 21.751172-4.519724l-3.301517-15.501242 15.642483-3.248552a11.016828 11.016828 0 0 0-4.555035-21.57462l-15.642483 3.266207-3.283862-15.501242a11.122759 11.122759 0 0 0-21.751172 4.519724l3.283862 15.501242-15.642483 3.266207a11.016828 11.016828 0 1 0 4.555035 21.53931h0.017655zM1324.314483 875.890759c0 8.315586 6.814897 15.059862 15.201103 15.059862h44.544c8.386207 0 15.183448-6.744276 15.183448-15.059862a15.130483 15.130483 0 0 0-15.183448-15.059862h-44.544a15.130483 15.130483 0 0 0-15.183448 15.059862zM17.178483 890.950621h179.74731c8.386207 0 15.183448-6.744276 15.183448-15.059862a15.130483 15.130483 0 0 0-15.183448-15.059862H17.178483a15.130483 15.130483 0 0 0-15.183449 15.059862c0 8.315586 6.797241 15.059862 15.183449 15.059862zM331.087448 460.923586v251.056552a44.314483 44.314483 0 0 0 44.349793 43.961379h203.634759a81.44331 81.44331 0 0 1-12.146759 47.439449h-27.665655c-13.27669 0.017655-25.829517 5.949793-34.198069 16.136827a43.537655 43.537655 0 0 0-9.057103 36.457931l0.07062 0.247173c0.388414 1.553655 0.847448 3.10731 1.412414 4.608H325.384828a15.130483 15.130483 0 0 0-15.183449 15.059862c0 8.315586 6.797241 15.059862 15.183449 15.059862-1.518345 0 243.23531 0.088276 944.233931 0 8.386207 0 15.183448-6.744276 15.183448-15.059862a15.130483 15.130483 0 0 0-15.183448-15.059862H1159.591724c5.526069-8.174345 8.474483-17.778759 8.474483-27.630345V541.837241c-0.03531-27.61269-22.598621-49.964138-50.440828-49.999448H1003.873103v-34.162759c3.03669-1.05931 6.073379-2.153931 8.651035-3.177931 2.295172-0.953379 4.555034-1.942069 6.426483-2.789517a130.136276 130.136276 0 0 0 80.295724-123.480276c0-0.741517-0.070621-1.50069-0.176552-2.718896-4.890483-74.646069-64.812138-134.144-140.093793-139.087448-19.244138-62.464-77.259034-105.224828-143.112828-105.524966-3.03669 0-5.843862 0.088276-8.598069 0.264828A149.433379 149.433379 0 0 0 680.96 13.294345a149.398069 149.398069 0 0 0-125.44 69.349517c-73.268966-10.71669-143.430621 33.28-165.075862 103.494621a150.192552 150.192552 0 0 0-109.02069 41.436689 147.667862 147.667862 0 0 0-45.744551 106.496c-0.47669 58.703448 38.505931 110.55669 95.390896 126.852414z m30.366897 251.056552V683.078621h489.789793v42.778482h-475.806897a14.018207 14.018207 0 0 1-13.982896-13.85931z m554.01931-220.16h-13.647448a50.440828 50.440828 0 0 0-49.611035 40.659862h-161.509517a10.169379 10.169379 0 0 0-9.833931 10.134069c0 5.437793 4.343172 9.904552 9.833931 10.116414h160.538483v51.2H572.945655a10.169379 10.169379 0 0 0-9.816276 10.134069c0 5.437793 4.343172 9.922207 9.816276 10.116414h278.298483v28.866206H419.486897V360.907034h496.022069v130.913104z m-64.229517 264.121379v77.259035c0 9.851586 2.948414 19.473655 8.474483 27.630345h-22.121931c1.518345-4.360828 2.348138-8.933517 2.401103-13.541518a44.06731 44.06731 0 0 0-44.208552-43.820138H768a80.295724 80.295724 0 0 1-12.146759-47.439448l95.373242-0.070621z m-41.683862 91.224276c0 7.538759-6.17931 13.665103-13.771035 13.665104h-256.529655a13.753379 13.753379 0 0 1-13.771034-13.629794c0-0.47669 0.211862-0.865103 0.247172-1.324137a13.417931 13.417931 0 0 1 10.769655-11.828966 14.177103 14.177103 0 0 1 2.789518-0.529655h256.529655c1.235862 0.070621 2.436414 0.317793 3.601655 0.706207 5.896828 1.588966 9.992828 6.885517 10.063448 12.941241h0.070621z m-199.891862-91.206621h115.694345c-0.741517 16.242759 2.189241 32.450207 8.598069 47.421794h-132.925794a107.431724 107.431724 0 0 0 8.63338-47.421794z m507.956965-234.01931c11.069793 0 20.038621 8.898207 20.056276 19.879724v291.380966c0 10.981517-8.986483 19.879724-20.056276 19.879724h-2.030345l0.070621-0.247173c0.776828-1.942069 1.430069-3.972414 1.959724-6.002758 0.353103-1.165241 0.829793-2.224552 1.059311-3.407448 0.706207-3.354483 1.05931-6.744276 1.05931-10.16938V541.819586c0-3.425103-0.353103-6.832552-1.05931-10.187034-0.229517-1.165241-0.706207-2.242207-1.059311-3.354483a50.882207 50.882207 0 0 0-1.942069-6.038069l-0.088276-0.247172 2.030345-0.052966z m-28.248276 19.879724v291.380966c0 10.981517-8.968828 19.879724-20.03862 19.879724H901.826207a20.073931 20.073931 0 0 1-20.215173-19.879724V541.837241a20.073931 20.073931 0 0 1 20.215173-19.879724h167.512276c11.069793 0 20.038621 8.898207 20.03862 19.879724z m-143.518896-49.999448v-146.061241a15.130483 15.130483 0 0 0-15.183448-15.059863H404.285793a15.130483 15.130483 0 0 0-15.183448 15.059863v307.2h-27.648V314.88a14.124138 14.124138 0 0 1 13.982896-13.85931h584.244966a13.85931 13.85931 0 0 1 13.824 13.85931v176.940138h-27.648zM384.98869 216.09931c4.678621-0.03531 9.357241 0.264828 13.982896 0.882759a17.160828 17.160828 0 0 0 17.619862-10.946207 14.053517 14.053517 0 0 0 0.423724-1.50069 118.060138 118.060138 0 0 1 52.135725-74.681379 119.913931 119.913931 0 0 1 90.200275-15.889655 17.001931 17.001931 0 0 0 17.655173-8.050759 118.854621 118.854621 0 0 1 103.282758-62.464 118.925241 118.925241 0 0 1 104.907035 59.745104c3.266207 6.002759 9.869241 9.463172 16.701793 8.73931 4.625655-0.635586 9.286621-0.935724 13.947586-0.900414 56.267034 0.353103 104.730483 39.406345 116.612414 93.925518a17.090207 17.090207 0 0 0 15.377655 11.175724c63.258483-0.494345 116.100414 47.686621 120.884966 110.238896 0 0.459034 0.141241 2.365793 0.176551 2.824828a100.334345 100.334345 0 0 1-62.446344 95.090758l-2.577656 1.147587v-110.55669a44.137931 44.137931 0 0 0-44.190896-43.961379H375.437241a44.57931 44.57931 0 0 0-44.349793 43.961379v114.052414a99.398621 99.398621 0 0 1-65.006345-94.861242c0.03531-65.112276 53.248-117.901241 118.907587-117.971862z" fill="#4C79FF" p-id="5390"></path><path d="M470.722207 624.110345h45.956414a10.169379 10.169379 0 0 0 9.833931-10.134069 10.169379 10.169379 0 0 0-9.833931-10.134069h-45.956414a10.169379 10.169379 0 0 0-9.816276 10.134069c0 5.437793 4.343172 9.904552 9.816276 10.116414zM470.722207 552.659862h160.838621a10.169379 10.169379 0 0 0 9.833931-10.134069 10.169379 10.169379 0 0 0-9.833931-10.116414h-160.838621a10.169379 10.169379 0 0 0-9.816276 10.116414c0 5.455448 4.343172 9.922207 9.816276 10.134069zM470.722207 481.28h261.049379a10.169379 10.169379 0 0 0 9.816276-10.134069 10.169379 10.169379 0 0 0-9.816276-10.134069H470.722207a10.169379 10.169379 0 0 0-9.816276 10.134069c0 5.437793 4.343172 9.904552 9.816276 10.116414zM864.308966 461.011862h-62.552276a10.169379 10.169379 0 0 0-9.833931 10.134069c0 5.437793 4.343172 9.904552 9.833931 10.116414h62.552276a10.169379 10.169379 0 0 0 9.816275-10.116414 10.169379 10.169379 0 0 0-9.816275-10.134069zM470.722207 409.864828h68.943448a10.169379 10.169379 0 0 0 9.816276-10.134069 10.169379 10.169379 0 0 0-9.816276-10.134069h-68.943448a10.169379 10.169379 0 0 0-9.816276 10.134069c0 5.437793 4.343172 9.922207 9.816276 10.134069zM599.216552 409.864828h265.092414a10.169379 10.169379 0 0 0 9.816275-10.134069 10.169379 10.169379 0 0 0-9.816275-10.134069H599.216552a10.169379 10.169379 0 0 0-9.833931 10.134069c0 5.437793 4.343172 9.922207 9.833931 10.134069zM1018.173793 809.913379h-65.324138a11.705379 11.705379 0 0 0-11.740689 11.652414c0 6.444138 5.261241 11.652414 11.758344 11.652414h65.306483a11.705379 11.705379 0 0 0 11.74069-11.652414 11.705379 11.705379 0 0 0-11.74069-11.652414zM1057.509517 742.87669H913.478621a11.705379 11.705379 0 0 0-11.758345 11.652413c0 6.444138 5.261241 11.652414 11.758345 11.652414h144.013241a11.705379 11.705379 0 0 0 11.74069-11.652414 11.705379 11.705379 0 0 0-11.74069-11.652413zM1057.509517 686.539034H913.478621a11.705379 11.705379 0 0 0-11.758345 11.652414c0 6.426483 5.261241 11.652414 11.758345 11.652414h144.013241a11.705379 11.705379 0 0 0 11.74069-11.652414 11.705379 11.705379 0 0 0-11.74069-11.652414zM913.496276 653.559172h49.964138a11.705379 11.705379 0 0 0 11.758345-11.670069 11.705379 11.705379 0 0 0-11.758345-11.652413h-49.964138a11.705379 11.705379 0 0 0-11.758345 11.652413c0 6.444138 5.261241 11.652414 11.758345 11.652414zM913.496276 597.133241h49.964138a11.705379 11.705379 0 0 0 11.758345-11.652413 11.705379 11.705379 0 0 0-11.758345-11.652414h-49.964138a11.705379 11.705379 0 0 0-11.758345 11.652414c0 6.426483 5.261241 11.652414 11.758345 11.652413zM1053.572414 571.639172h-47.492414c-10.699034 0-19.350069 8.580414-19.367724 19.173518v52.347586c0 10.593103 8.66869 19.173517 19.350069 19.191172h47.492414c10.699034 0 19.350069-8.598069 19.367724-19.191172v-52.347586c0-10.593103-8.66869-19.173517-19.350069-19.173518z m4.16662 71.521104c0 2.295172-1.871448 4.13131-4.16662 4.13131h-47.492414a4.148966 4.148966 0 0 1-4.184276-4.13131v-52.347586c0-2.277517 1.871448-4.113655 4.166621-4.113656h47.492414c2.312828 0 4.184276 1.836138 4.184275 4.113656v52.347586z" fill="#4C79FF" p-id="5391"></path></svg>
