<?xml version="1.0" standalone="no"?>
<!DOCTYPE svg PUBLIC "-//W3C//DTD SVG 20010904//EN"
 "http://www.w3.org/TR/2001/REC-SVG-20010904/DTD/svg10.dtd">
<svg version="1.0" xmlns="http://www.w3.org/2000/svg"
 width="1024.000000pt" height="1024.000000pt" viewBox="0 0 1024.000000 1024.000000"
 preserveAspectRatio="xMidYMid meet">
<metadata>
Created by potrace 1.14, written by Peter Selinger 2001-2017
</metadata>
<g transform="translate(0.000000,1024.000000) scale(0.100000,-0.100000)"
fill="#000000" stroke="none">
<path d="M2465 10233 c-551 -20 -907 -97 -1245 -269 -223 -113 -391 -237 -566
-416 -332 -340 -531 -754 -603 -1254 -46 -320 -46 -297 -46 -3174 0 -2877 0
-2854 46 -3174 75 -518 288 -947 641 -1292 339 -331 755 -531 1254 -603 320
-46 297 -46 3174 -46 2877 0 2854 0 3174 46 518 75 947 288 1292 641 331 339
531 755 603 1254 46 320 46 297 46 3174 0 2877 0 2854 -46 3174 -72 500 -271
914 -603 1254 -175 179 -343 303 -566 416 -284 145 -556 215 -990 257 -94 9
-792 13 -2805 14 -1474 1 -2716 0 -2760 -2z m2214 -3270 c123 -319 1407 -3677
1417 -3705 l13 -38 -333 0 -333 0 -128 353 c-70 193 -148 407 -172 475 l-45
122 -797 0 -796 0 -172 -473 -171 -472 -335 -3 -334 -2 726 1900 726 1900 356
0 356 0 22 -57z m2431 -1843 l0 -1900 -315 0 -315 0 0 1900 0 1900 315 0 315
0 0 -1900z"/>
<path d="M3997 5527 c-163 -453 -297 -829 -297 -835 0 -9 144 -12 606 -12 481
0 605 3 602 13 -3 6 -137 382 -299 834 -162 453 -299 823 -304 823 -6 0 -144
-370 -308 -823z"/>
</g>
</svg>
